#!OML:ASF X:\für Bonn\!DataBase\2005_08_12_Daniel\c3d\Daniel.ASF
:FULLY-SPECIFIED
:DEGREES
196
root 0.567448 15.1512 -16.8487 375.926 20.3395 11.0855
lowerback 87.2229 -8.30016 10.2139
upperback 7.00568 1.63708 -2.16657
thorax -10.9807 1.40046 -7.08003
lowerneck 3.31599 -8.03027 -1.73014
upperneck 6.94705 -10.7355 6.00642
head 2.10446 -5.17861 2.09123
rclavicle -6.36111e-015 -6.36111e-015
rhumerus 235.784 -157.728 -264.302
rradius 5.67328
rwrist 4.44909
rhand -59.2646 -1.4109
rfingers 7.12502
rthumb -31.4514 -28.7253
lclavicle -6.36111e-015 -6.36111e-015
lhumerus -29.0597 -18.9676 93.5856
lradius 55.0401
lwrist 14.2058
lhand -7.09909 -7.07047
lfingers 7.12502
lthumb 18.7755 22.0434
rfemur -61.618 -11.0178 3.62869
rtibia 79.9348
rfoot -28.4691 -5.2378
rtoes -17.2309
lfemur -65.4441 -6.9946 -28.1108
ltibia 71.9275
lfoot -16.6382 -21.9022
ltoes -5.17314
197
root 0.56373 15.1455 -16.847 375.89 20.5016 11.0425
lowerback 87.2152 -8.31332 10.2796
upperback 7.00454 1.68817 -2.15217
thorax -10.9711 1.42061 -7.10599
lowerneck 3.5034 -8.06253 -1.65985
upperneck 6.89053 -10.7695 6.01733
head 2.05122 -5.19651 2.09119
rclavicle 6.04305e-014 2.0276e-014
rhumerus 235.819 -157.88 -264.305
rradius 5.8265
rwrist 4.23426
rhand -59.6407 -1.74105
rfingers 7.12502
rthumb -31.8097 -28.985
lclavicle 6.04305e-014 2.0276e-014
lhumerus -28.9477 -19.1009 93.6447
lradius 55.0289
lwrist 14.2087
lhand -7.1678 -6.97285
lfingers 7.12502
lthumb 18.7094 22.1474
rfemur -61.5767 -11.0434 3.68898
rtibia 80.0158
rfoot -28.5496 -5.33389
rtoes -17.2005
lfemur -65.4558 -6.98819 -28.0604
ltibia 71.9839
lfoot -16.6333 -22.0733
ltoes -5.17193
198
root 0.560053 15.142 -16.8447 375.873 20.6375 11.0075
lowerback 87.1734 -8.30779 10.3286
upperback 7.02764 1.73292 -2.15089
thorax -10.9401 1.44198 -7.14051
lowerneck 3.57205 -8.09981 -1.57059
upperneck 6.93103 -10.8138 6.01318
head 2.04879 -5.21506 2.07636
rclavicle -1.27222e-014 -6.91771e-014
rhumerus 235.902 -158.073 -264.368
rradius 5.97417
rwrist 4.19292
rhand -59.8436 -1.9928
rfingers 7.12502
rthumb -32.0029 -29.1982
lclavicle -1.27222e-014 -6.91771e-014
lhumerus -28.7923 -19.2368 93.6787
lradius 54.9688
lwrist 14.1791
lhand -7.27087 -6.93095
lfingers 7.12502
lthumb 18.6103 22.1988
rfemur -61.5359 -11.0415 3.73681
rtibia 80.0746
rfoot -28.6331 -5.43615
rtoes -17.24
lfemur -65.4802 -6.96634 -28.0234
ltibia 72.031
lfoot -16.6202 -22.2576
ltoes -5.13017
199
root 0.555954 15.1381 -16.8427 375.844 20.7907 10.9782
lowerback 87.1701 -8.32558 10.3864
upperback 7.01959 1.7699 -2.15165
thorax -10.9403 1.45761 -7.17706
lowerneck 3.71812 -8.13841 -1.5026
upperneck 6.92825 -10.8569 6.00723
head 2.01989 -5.23564 2.06864
rclavicle 2.22639e-014 -3.02153e-014
rhumerus 235.945 -158.236 -264.394
rradius 6.11686
rwrist 4.28142
rhand -59.6802 -2.02164
rfingers 7.12502
rthumb -31.8473 -29.2581
lclavicle 2.22639e-014 -3.02153e-014
lhumerus -28.6935 -19.3405 93.7264
lradius 54.9466
lwrist 14.181
lhand -7.35202 -6.91717
lfingers 7.12502
lthumb 18.5322 22.2201
rfemur -61.484 -11.0651 3.77806
rtibia 80.1406
rfoot -28.7162 -5.50226
rtoes -17.1417
lfemur -65.4817 -6.95041 -27.9907
ltibia 72.0664
lfoot -16.6009 -22.4348
ltoes -5.10342
200
root 0.551737 15.1353 -16.8407 375.831 20.9246 10.9714
lowerback 87.1455 -8.31978 10.4244
upperback 7.03703 1.80988 -2.1491
thorax -10.9149 1.47722 -7.20405
lowerneck 3.8006 -8.17631 -1.41664
upperneck 6.9191 -10.901 6.01549
head 1.99979 -5.25572 2.0599
rclavicle -5.08889e-014 -4.45278e-014
rhumerus 236.046 -158.417 -264.444
rradius 6.23757
rwrist 4.51738
rhand -59.3421 -1.80789
rfingers 7.12502
rthumb -31.5253 -29.1079
lclavicle -5.08889e-014 -4.45278e-014
lhumerus -28.5497 -19.4515 93.7676
lradius 54.8978
lwrist 14.1171
lhand -7.44228 -6.98979
lfingers 7.12502
lthumb 18.4454 22.1557
rfemur -61.4479 -11.0897 3.80305
rtibia 80.2017
rfoot -28.784 -5.56856
rtoes -17.0837
lfemur -65.483 -6.94612 -27.9728
ltibia 72.0955
lfoot -16.5555 -22.5991
ltoes -4.9364
201
root 0.547947 15.1321 -16.8384 375.844 21.0819 10.9647
lowerback 87.0883 -8.35858 10.5016
upperback 7.04875 1.83134 -2.16547
thorax -10.899 1.49033 -7.26089
lowerneck 3.94819 -8.22347 -1.34885
upperneck 6.86132 -10.9549 6.03517
head 1.95491 -5.28308 2.06146
rclavicle 5.08889e-014 -2.10712e-014
rhumerus 236.131 -158.566 -264.489
rradius 6.35516
rwrist 4.85325
rhand -58.7322 -1.47522
rfingers 7.12502
rthumb -30.9441 -28.8873
lclavicle 5.08889e-014 -2.10712e-014
lhumerus -28.4071 -19.5407 93.8021
lradius 54.8252
lwrist 14.0858
lhand -7.51114 -7.10236
lfingers 7.12502
lthumb 18.3792 22.0494
rfemur -61.4194 -11.129 3.82504
rtibia 80.258
rfoot -28.8652 -5.63393
rtoes -17.0543
lfemur -65.5204 -6.96605 -27.9497
ltibia 72.1216
lfoot -16.5129 -22.7513
ltoes -4.84941
202
root 0.543896 15.1285 -16.8364 375.883 21.2057 10.9744
lowerback 87.045 -8.34686 10.5349
upperback 7.03948 1.8681 -2.1654
thorax -10.9107 1.50426 -7.28957
lowerneck 4.05394 -8.26654 -1.33902
upperneck 6.86558 -11.0083 6.07302
head 1.94257 -5.309 2.07581
rclavicle -1.20861e-013 4.41302e-014
rhumerus 236.191 -158.766 -264.53
rradius 6.46186
rwrist 5.34709
rhand -57.9214 -0.815486
rfingers 7.12502
rthumb -30.1709 -28.3717
lclavicle -1.20861e-013 4.41302e-014
lhumerus -28.3118 -19.6224 93.8684
lradius 54.7599
lwrist 14.0632
lhand -7.63429 -7.25821
lfingers 7.12502
lthumb 18.2607 21.9047
rfemur -61.4404 -11.1554 3.82794
rtibia 80.3264
rfoot -28.9172 -5.69624
rtoes -16.9552
lfemur -65.5707 -6.96477 -27.9477
ltibia 72.1402
lfoot -16.4682 -22.9001
ltoes -4.76164
